PathFileType	4	(x/y/z)	S10_PSF_T15
DataRate	CameraRate	NumFrames	NumMarkers	Units	OrigDataRate	OrigDataStartFrame	OrigNumFrames
240	240	7	51	mm	240	110	439
Frame#	Time	Sternum			R.Acromium			L.Acromium			Top.Head			R.ASIS			L.ASIS			R.PSIS			L.PSIS			R.Great.Tro			L.Great.Tro			R.Iliac.Crest			L.Iliac.Crest			V.Sacral			R.Thigh.Upper.Post			R.Thigh.Lower.Ant			R.Thigh.Lower.Post			R.Thigh.Upper.Ant			R.Knee.Lat			R.Knee.Med			R.Shank.Upper.Post			R.Shank.Lower.Ant			R.Shank.Lower.Post			R.Shank.Upper.Ant			R.Ankle.Lat			R.Ankle.Med			R.Heel.Upper			R.Heel.Med			R.Heel.Lat			R.Toe.Lat			R.Toe.Med			R.Toe.Tip			L.Thigh.Upper.Post			L.Thigh.Lower.Ant			L.Thigh.Lower.Post			L.Thigh.Upper.Ant			L.Knee.Lat			L.Knee.Med			L.Shank.Upper.Post			L.Shank.Lower.Ant			L.Shank.Lower.Post			L.Shank.Upper.Ant			L.Ankle.Lat			L.Ankle.Med			L.Heel.Upper			L.Heel.Med			L.Heel.Lat			L.Toe.Lat			L.Toe.Med			L.Toe.Tip			Cervical.Spine			Back			
		X1	Y1	Z1	X2	Y2	Z2	X3	Y3	Z3	X4	Y4	Z4	X5	Y5	Z5	X6	Y6	Z6	X7	Y7	Z7	X8	Y8	Z8	X9	Y9	Z9	X10	Y10	Z10	X11	Y11	Z11	X12	Y12	Z12	X13	Y13	Z13	X14	Y14	Z14	X15	Y15	Z15	X16	Y16	Z16	X17	Y17	Z17	X18	Y18	Z18	X19	Y19	Z19	X20	Y20	Z20	X21	Y21	Z21	X22	Y22	Z22	X23	Y23	Z23	X24	Y24	Z24	X25	Y25	Z25	X26	Y26	Z26	X27	Y27	Z27	X28	Y28	Z28	X29	Y29	Z29	X30	Y30	Z30	X31	Y31	Z31	X32	Y32	Z32	X33	Y33	Z33	X34	Y34	Z34	X35	Y35	Z35	X36	Y36	Z36	X37	Y37	Z37	X38	Y38	Z38	X39	Y39	Z39	X40	Y40	Z40	X41	Y41	Z41	X42	Y42	Z42	X43	Y43	Z43	X44	Y44	Z44	X45	Y45	Z45	X46	Y46	Z46	X47	Y47	Z47	X48	Y48	Z48	X49	Y49	Z49	X50	Y50	Z50	X51	Y51	Z51	

110	0.45417	-887.36	1282.1	323.82	-1034.4	1432.8	463.25	-980.13	1462.1	163.46	-1046.5	1752.4	339.6	-941.16	1015.5	418.43	-933.33	1026.7	191.48	-1139.6	1026.7	327.92	-1133.4	1036.3	248.13	-1001	938.02	493.38	-997.06	961.2	133.02	-1042.6	1091.6	460.75	-1005.6	1101	162.14	-1158.1	996.99	290.36	-893.23	752.51	498.39	-809.77	706.92	459.16	-856.71	670.46	494.51	-845.92	791.02	457.33	-819.73	546.29	459.09	-813.64	550.86	331.67	-904.26	328.03	451.79	-842.75	261.06	449.13	-907.62	253.91	447.02	-832.52	336.94	453.78	-895.93	142.33	431.17	-871.46	152.99	356.19	-948.79	97.796	373.16	-937.58	70.736	347.7	-952.67	73.547	407.31	-793.98	50.83	481.3	-747.44	56.516	380.77	-697.24	71.727	430.63	-1076.6	695.43	147.17	-1015.5	606.69	174.49	-1093.1	603.29	171.29	-996.74	690.7	152.18	-1077.3	510.57	184.07	-1067.9	511.94	313.25	-1170.6	310.15	192.73	-1121.6	213.28	216.9	-1179.1	234.18	207.44	-1112.7	288.36	201.85	-1175	108.99	227.37	-1159.7	123.22	317.66	-1244.8	80.276	277	-1235.6	47.19	308.21	-1240.9	52.787	244.03	-1066	42.485	200.91	-1035.9	44.068	309.88	-981.6	53.345	259.53	-1090.2	1498.1	309.67	-1171.5	1289.9	282.62
111	0.45833	-882.34	1281.3	324.15	-1029.5	1432	463.43	-974.77	1461.6	163.87	-1041.4	1751.6	339.92	-936.08	1014.8	418.69	-928.12	1025.8	191.72	-1134.5	1026.1	328.11	-1128.2	1035.6	248.34	-996.19	937.32	493.64	-992.24	960.42	133.21	-1037.5	1090.9	460.91	-1000.2	1100.1	162.3	-1152.9	996.38	290.57	-889.11	751.24	498.24	-805.61	705.61	459.15	-852.82	669.11	494.1	-841.51	789.79	457.57	-815.16	545.37	458.58	-809	549.92	331.21	-893.76	324.94	452.41	-830.34	259.84	449.54	-895.01	250.78	447.79	-822.44	335.97	453.96	-880.11	139.4	432.16	-856.22	150.59	357	-931.74	93.159	374.39	-919.83	66.439	348.93	-934.86	68.954	408.56	-775.33	51.052	482.1	-729.19	57.763	381.38	-679.39	74.517	431.05	-1073.6	695.43	147.2	-1013.4	606.13	174.61	-1090.8	603.36	171.24	-993.8	690.18	152.13	-1075.7	510.46	183.95	-1066	511.65	313.12	-1169.6	310.42	192.68	-1121.1	213.37	216.87	-1178.4	234.49	207.44	-1111.9	288.39	201.8	-1174.8	109.18	227.49	-1159.3	123.37	317.66	-1244.7	80.457	277.19	-1235.5	47.312	308.34	-1240.8	53.019	244.17	-1065.9	42.454	200.91	-1035.8	43.998	309.88	-981.51	53.133	259.55	-1085.2	1497.5	309.76	-1166.4	1289.2	282.49
112	0.4625	-877.31	1280.4	324.52	-1024.7	1431.1	463.62	-969.39	1461	164.29	-1036.4	1750.9	340.24	-930.99	1014.1	418.96	-922.87	1025	191.98	-1129.5	1025.4	328.29	-1123.1	1034.9	248.52	-991.36	936.54	493.89	-987.38	959.63	133.4	-1032.4	1090.2	461.08	-994.8	1099.3	162.48	-1147.7	995.73	290.76	-885.1	749.85	498.09	-801.59	704.13	459.18	-849.09	667.63	493.7	-837.19	788.41	457.85	-810.72	544.33	458.06	-804.46	548.86	330.74	-883.29	321.95	453.01	-818.04	258.75	449.94	-882.44	247.81	448.55	-812.45	335.07	454.12	-864.33	136.71	433.17	-841.03	148.39	357.81	-914.7	88.808	375.66	-902.12	62.442	350.18	-917.05	64.675	409.85	-756.8	51.548	482.87	-711.14	59.254	381.94	-661.75	77.521	431.4	-1070.6	695.43	147.22	-1011.4	605.57	174.72	-1088.4	603.42	171.2	-990.84	689.65	152.08	-1073.9	510.35	183.83	-1064.1	511.37	313	-1168.6	310.71	192.64	-1120.5	213.46	216.85	-1177.7	234.81	207.44	-1111.1	288.42	201.75	-1174.7	109.39	227.62	-1159	123.53	317.68	-1244.6	80.656	277.38	-1235.4	47.446	308.46	-1240.7	53.264	244.32	-1065.9	42.423	200.91	-1035.7	43.926	309.87	-981.42	52.921	259.57	-1080.2	1496.7	309.87	-1161.2	1288.4	282.37
113	0.46667	-872.26	1279.5	324.9	-1019.8	1430.3	463.82	-964.01	1460.4	164.72	-1031.3	1750.1	340.57	-925.88	1013.4	419.25	-917.58	1024.1	192.26	-1124.4	1024.7	328.47	-1118	1034.2	248.67	-986.53	935.68	494.13	-982.49	958.83	133.58	-1027.4	1089.4	461.24	-989.34	1098.3	162.68	-1142.4	995.05	290.94	-881.2	748.34	497.97	-797.68	702.5	459.24	-845.5	666.02	493.33	-832.94	786.9	458.16	-806.39	543.2	457.54	-800.03	547.67	330.25	-872.88	319.07	453.59	-805.85	257.81	450.32	-869.93	244.99	449.31	-802.56	334.26	454.27	-848.6	134.27	434.18	-825.93	146.41	358.62	-897.71	84.755	376.95	-884.47	58.751	351.45	-899.28	60.718	411.18	-738.42	52.317	483.6	-693.32	60.986	382.44	-644.33	80.736	431.68	-1067.6	695.43	147.25	-1009.2	605.01	174.82	-1086	603.49	171.16	-987.84	689.1	152.03	-1072.1	510.23	183.73	-1062.2	511.09	312.9	-1167.6	311	192.61	-1119.9	213.56	216.82	-1177	235.14	207.45	-1110.2	288.44	201.7	-1174.5	109.6	227.75	-1158.6	123.7	317.7	-1244.4	80.874	277.57	-1235.3	47.592	308.59	-1240.6	53.523	244.47	-1065.8	42.392	200.91	-1035.7	43.853	309.87	-981.33	52.71	259.6	-1075.2	1495.9	309.98	-1156	1287.6	282.27
114	0.47083	-867.2	1278.6	325.31	-1014.9	1429.4	464.03	-958.62	1459.8	165.16	-1026.2	1749.2	340.9	-920.76	1012.6	419.54	-912.27	1023.2	192.55	-1119.4	1023.9	328.64	-1113.1	1033.5	248.8	-981.69	934.76	494.35	-977.57	958.01	133.74	-1022.3	1088.6	461.42	-983.83	1097.4	162.91	-1137.2	994.33	291.1	-877.39	746.73	497.87	-793.87	700.73	459.34	-842.04	664.3	492.98	-828.77	785.25	458.49	-802.17	541.98	457.02	-795.73	546.36	329.74	-862.54	316.3	454.16	-793.79	257	450.69	-857.5	242.34	450.05	-792.79	333.53	454.41	-832.95	132.08	435.2	-810.95	144.64	359.42	-880.79	81.005	378.26	-866.91	55.37	352.73	-881.59	57.088	412.53	-720.21	53.359	484.29	-675.75	62.955	382.88	-627.16	84.16	431.87	-1064.5	695.44	147.28	-1007.1	604.45	174.91	-1083.5	603.55	171.14	-984.81	688.54	151.97	-1070.3	510.11	183.63	-1060.1	510.82	312.8	-1166.6	311.3	192.58	-1119.3	213.65	216.8	-1176.3	235.49	207.45	-1109.3	288.47	201.66	-1174.4	109.83	227.88	-1158.3	123.88	317.73	-1244.3	81.112	277.75	-1235.2	47.754	308.72	-1240.5	53.796	244.61	-1065.8	42.36	200.91	-1035.6	43.78	309.87	-981.24	52.501	259.62	-1070.1	1495.1	310.11	-1150.8	1286.8	282.17
115	0.475	-862.12	1277.6	325.73	-1010	1428.4	464.25	-953.22	1459.1	165.61	-1021.1	1748.3	341.24	-915.62	1011.8	419.85	-906.94	1022.3	192.85	-1114.3	1023.1	328.81	-1108.2	1032.7	248.9	-976.85	933.78	494.57	-972.62	957.17	133.9	-1017.2	1087.7	461.6	-978.25	1096.4	163.15	-1131.9	993.57	291.25	-873.66	745.02	497.79	-790.17	698.82	459.46	-838.69	662.46	492.66	-824.66	783.49	458.85	-798.04	540.68	456.49	-791.54	544.93	329.22	-852.28	313.64	454.7	-781.89	256.34	451.05	-845.17	239.87	450.77	-783.14	332.89	454.54	-817.41	130.15	436.2	-796.1	143.09	360.21	-863.99	77.562	379.59	-849.49	52.299	354.02	-863.99	53.787	413.89	-702.21	54.667	484.93	-658.46	65.154	383.25	-610.28	87.784	431.98	-1061.3	695.44	147.3	-1004.8	603.9	174.98	-1081	603.62	171.13	-981.74	687.97	151.92	-1068.4	509.99	183.55	-1058	510.55	312.72	-1165.5	311.61	192.57	-1118.6	213.74	216.78	-1175.5	235.85	207.46	-1108.4	288.49	201.61	-1174.2	110.07	228.01	-1157.9	124.07	317.76	-1244.2	81.372	277.94	-1235.1	47.933	308.85	-1240.5	54.084	244.75	-1065.7	42.327	200.91	-1035.5	43.708	309.86	-981.15	52.294	259.63	-1065	1494.3	310.25	-1145.6	1285.9	282.09
116	0.47917	-857.03	1276.6	326.17	-1005	1427.5	464.49	-947.81	1458.3	166.07	-1016	1747.4	341.58	-910.47	1010.9	420.16	-901.6	1021.3	193.16	-1109.2	1022.3	328.97	-1103.4	1032	248.99	-972	932.74	494.78	-967.64	956.32	134.04	-1012.2	1086.8	461.78	-972.6	1095.4	163.42	-1126.7	992.78	291.4	-869.98	743.23	497.74	-786.55	696.78	459.62	-835.44	660.52	492.38	-820.59	781.61	459.23	-794	539.3	455.98	-787.49	543.38	328.69	-842.12	311.12	455.22	-770.16	255.81	451.38	-832.96	237.56	451.45	-773.62	332.33	454.66	-802.01	128.48	437.19	-781.41	141.77	360.97	-847.34	74.427	380.91	-832.23	49.535	355.31	-846.54	50.813	415.25	-684.45	56.236	485.51	-641.48	67.571	383.56	-593.7	91.598	432.01	-1058	695.44	147.33	-1002.4	603.36	175.04	-1078.4	603.69	171.12	-978.63	687.4	151.86	-1066.4	509.87	183.47	-1055.9	510.28	312.66	-1164.4	311.92	192.56	-1118	213.83	216.77	-1174.7	236.22	207.47	-1107.4	288.52	201.57	-1174	110.31	228.14	-1157.5	124.27	317.81	-1244	81.657	278.11	-1234.9	48.132	308.97	-1240.4	54.389	244.89	-1065.7	42.293	200.91	-1035.4	43.637	309.86	-981.06	52.09	259.65	-1059.9	1493.4	310.4	-1140.3	1285	282.02
